HIERARCHY
ROOT Hips
{
	OFFSET 0.000000 97.167313 0.000000
	CHANNELS 6 Xposition Yposition Zposition Xrotation Yrotation Zrotation
	JOINT Spine
	{
		OFFSET 0.000000 13.784798 0.064400
		CHANNELS 3 Xrotation Yrotation Zrotation
		JOINT Spine1
		{
			OFFSET 0.000000 12.037903 0.404700
			CHANNELS 3 Xrotation Yrotation Zrotation
			JOINT Spine2
			{
				OFFSET 0.000000 17.795601 0.420200
				CHANNELS 3 Xrotation Yrotation Zrotation
				JOINT Neck
				{
					OFFSET 0.000000 39.131302 11.954600
					CHANNELS 3 Xrotation Yrotation Zrotation
					JOINT Head
					{
						OFFSET 0.000000 14.456192 15.627699
						CHANNELS 3 Xrotation Yrotation Zrotation
						JOINT HeadTop_End
						{
							OFFSET 0.000000 15.703506 7.603401
							CHANNELS 3 Xrotation Yrotation Zrotation
							End Site
							{
								OFFSET 0.000000 17.447403 0.000000
							}
						}
					}
				}
				JOINT LeftShoulder
				{
					OFFSET 17.399500 24.608795 1.168800
					CHANNELS 3 Xrotation Yrotation Zrotation
					JOINT LeftArm
					{
						OFFSET 18.980635 5.765305 1.818600
						CHANNELS 3 Xrotation Yrotation Zrotation
						JOINT LeftForeArm
						{
							OFFSET 49.290169 0.000000 0.000000
							CHANNELS 3 Xrotation Yrotation Zrotation
							JOINT LeftHand
							{
								OFFSET 31.562012 0.000000 0.000000
								CHANNELS 3 Xrotation Yrotation Zrotation
								JOINT LeftHandThumb1
								{
									OFFSET 6.133995 -4.388519 7.076070
									CHANNELS 3 Xrotation Yrotation Zrotation
									JOINT LeftHandThumb2
									{
										OFFSET 6.037666 -3.485840 3.485847
										CHANNELS 3 Xrotation Yrotation Zrotation
										JOINT LeftHandThumb3
										{
											OFFSET 6.496506 -3.750763 3.750761
											CHANNELS 3 Xrotation Yrotation Zrotation
											JOINT LeftHandThumb4
											{
												OFFSET 5.616882 -3.242905 3.242910
												CHANNELS 3 Xrotation Yrotation Zrotation
												End Site
												{
													OFFSET -1.254608 7.132141 0.375429
												}
											}
										}
									}
								}
								JOINT LeftHandPinky1
								{
									OFFSET 18.920792 -0.453171 -11.426712
									CHANNELS 3 Xrotation Yrotation Zrotation
									JOINT LeftHandPinky2
									{
										OFFSET 4.919586 0.000000 0.000000
										CHANNELS 3 Xrotation Yrotation Zrotation
										JOINT LeftHandPinky3
										{
											OFFSET 5.233047 0.000000 0.000000
											CHANNELS 3 Xrotation Yrotation Zrotation
											JOINT LeftHandPinky4
											{
												OFFSET 5.571716 0.000000 0.000000
												CHANNELS 3 Xrotation Yrotation Zrotation
												End Site
												{
													OFFSET -3.459808 4.342407 -0.466164
												}
											}
										}
									}
								}
								JOINT LeftHandRing1
								{
									OFFSET 22.726120 -0.094986 -6.500475
									CHANNELS 3 Xrotation Yrotation Zrotation
									JOINT LeftHandRing2
									{
										OFFSET 6.408615 0.000000 0.000000
										CHANNELS 3 Xrotation Yrotation Zrotation
										JOINT LeftHandRing3
										{
											OFFSET 6.150223 0.000000 0.000000
											CHANNELS 3 Xrotation Yrotation Zrotation
											JOINT LeftHandRing4
											{
												OFFSET 6.145386 0.000000 0.000000
												CHANNELS 3 Xrotation Yrotation Zrotation
												End Site
												{
													OFFSET -3.671402 4.923981 -0.202372
												}
											}
										}
									}
								}
								JOINT LeftHandMiddle1
								{
									OFFSET 23.373947 0.000000 0.000001
									CHANNELS 3 Xrotation Yrotation Zrotation
									JOINT LeftHandMiddle2
									{
										OFFSET 6.996567 0.000000 0.000000
										CHANNELS 3 Xrotation Yrotation Zrotation
										JOINT LeftHandMiddle3
										{
											OFFSET 7.015945 0.000000 0.000000
											CHANNELS 3 Xrotation Yrotation Zrotation
											JOINT LeftHandMiddle4
											{
												OFFSET 7.721573 0.000000 0.000000
												CHANNELS 3 Xrotation Yrotation Zrotation
												End Site
												{
													OFFSET -4.651108 6.158463 0.251582
												}
											}
										}
									}
								}
								JOINT LeftHandIndex1
								{
									OFFSET 21.310577 -0.490082 6.209344
									CHANNELS 3 Xrotation Yrotation Zrotation
									JOINT LeftHandIndex2
									{
										OFFSET 7.536453 0.000000 0.000000
										CHANNELS 3 Xrotation Yrotation Zrotation
										JOINT LeftHandIndex3
										{
											OFFSET 7.512344 0.000000 0.000000
											CHANNELS 3 Xrotation Yrotation Zrotation
											JOINT LeftHandIndex4
											{
												OFFSET 10.212402 0.000000 0.000001
												CHANNELS 3 Xrotation Yrotation Zrotation
												End Site
												{
													OFFSET -5.180801 8.690506 1.388433
												}
											}
										}
									}
								}
							}
						}
					}
				}
				JOINT RightShoulder
				{
					OFFSET -17.399500 24.608795 1.168800
					CHANNELS 3 Xrotation Yrotation Zrotation
					JOINT RightArm
					{
						OFFSET -18.980635 5.765305 1.818600
						CHANNELS 3 Xrotation Yrotation Zrotation
						JOINT RightForeArm
						{
							OFFSET -49.290169 0.000000 0.000000
							CHANNELS 3 Xrotation Yrotation Zrotation
							JOINT RightHand
							{
								OFFSET -31.562012 0.000000 0.000000
								CHANNELS 3 Xrotation Yrotation Zrotation
								JOINT RightHandThumb1
								{
									OFFSET -6.133995 -4.388519 7.076070
									CHANNELS 3 Xrotation Yrotation Zrotation
									JOINT RightHandThumb2
									{
										OFFSET -6.037666 -3.485840 3.485847
										CHANNELS 3 Xrotation Yrotation Zrotation
										JOINT RightHandThumb3
										{
											OFFSET -6.496506 -3.750763 3.750761
											CHANNELS 3 Xrotation Yrotation Zrotation
											JOINT RightHandThumb4
											{
												OFFSET -5.616882 -3.242905 3.242910
												CHANNELS 3 Xrotation Yrotation Zrotation
												End Site
												{
													OFFSET 1.254608 7.132141 0.375429
												}
											}
										}
									}
								}
								JOINT RightHandIndex1
								{
									OFFSET -21.310577 -0.490082 6.209344
									CHANNELS 3 Xrotation Yrotation Zrotation
									JOINT RightHandIndex2
									{
										OFFSET -7.536453 0.000000 0.000000
										CHANNELS 3 Xrotation Yrotation Zrotation
										JOINT RightHandIndex3
										{
											OFFSET -7.512344 0.000000 0.000000
											CHANNELS 3 Xrotation Yrotation Zrotation
											JOINT RightHandIndex4
											{
												OFFSET -10.212402 0.000000 0.000001
												CHANNELS 3 Xrotation Yrotation Zrotation
												End Site
												{
													OFFSET 5.180801 8.690506 1.388433
												}
											}
										}
									}
								}
								JOINT RightHandMiddle1
								{
									OFFSET -23.373947 0.000000 0.000001
									CHANNELS 3 Xrotation Yrotation Zrotation
									JOINT RightHandMiddle2
									{
										OFFSET -6.996567 0.000000 0.000000
										CHANNELS 3 Xrotation Yrotation Zrotation
										JOINT RightHandMiddle3
										{
											OFFSET -7.015945 0.000000 0.000000
											CHANNELS 3 Xrotation Yrotation Zrotation
											JOINT RightHandMiddle4
											{
												OFFSET -7.721573 0.000000 0.000000
												CHANNELS 3 Xrotation Yrotation Zrotation
												End Site
												{
													OFFSET 4.651108 6.158463 0.251582
												}
											}
										}
									}
								}
								JOINT RightHandRing1
								{
									OFFSET -22.726120 -0.094986 -6.500475
									CHANNELS 3 Xrotation Yrotation Zrotation
									JOINT RightHandRing2
									{
										OFFSET -6.408615 0.000000 0.000000
										CHANNELS 3 Xrotation Yrotation Zrotation
										JOINT RightHandRing3
										{
											OFFSET -6.150223 0.000000 0.000000
											CHANNELS 3 Xrotation Yrotation Zrotation
											JOINT RightHandRing4
											{
												OFFSET -6.145386 0.000000 0.000000
												CHANNELS 3 Xrotation Yrotation Zrotation
												End Site
												{
													OFFSET 3.671402 4.923981 -0.202372
												}
											}
										}
									}
								}
								JOINT RightHandPinky1
								{
									OFFSET -18.920792 -0.453171 -11.426712
									CHANNELS 3 Xrotation Yrotation Zrotation
									JOINT RightHandPinky2
									{
										OFFSET -4.919586 0.000000 0.000000
										CHANNELS 3 Xrotation Yrotation Zrotation
										JOINT RightHandPinky3
										{
											OFFSET -5.233047 0.000000 0.000000
											CHANNELS 3 Xrotation Yrotation Zrotation
											JOINT RightHandPinky4
											{
												OFFSET -5.571716 0.000000 0.000000
												CHANNELS 3 Xrotation Yrotation Zrotation
												End Site
												{
													OFFSET 3.459808 4.342407 -0.466164
												}
											}
										}
									}
								}
							}
						}
					}
				}
			}
		}
	}
	JOINT LeftUpLeg
	{
		OFFSET 19.899099 -7.885101 -3.429500
		CHANNELS 3 Xrotation Yrotation Zrotation
		JOINT LeftLeg
		{
			OFFSET 1.745560 -36.997807 10.304700
			CHANNELS 3 Xrotation Yrotation Zrotation
			JOINT LeftFoot
			{
				OFFSET -1.745558 -29.803308 -13.615400
				CHANNELS 3 Xrotation Yrotation Zrotation
				JOINT LeftToeBase
				{
					OFFSET 1.181900 -18.539904 15.226099
					CHANNELS 3 Xrotation Yrotation Zrotation
					JOINT LeftToe_End
					{
						OFFSET -0.863701 1.402801 16.534700
						CHANNELS 3 Xrotation Yrotation Zrotation
						End Site
						{
							OFFSET 0.000000 16.616566 0.000000
						}
					}
				}
			}
		}
	}
	JOINT RightUpLeg
	{
		OFFSET -19.899099 -7.885101 -3.429500
		CHANNELS 3 Xrotation Yrotation Zrotation
		JOINT RightLeg
		{
			OFFSET -1.745560 -36.997807 10.304700
			CHANNELS 3 Xrotation Yrotation Zrotation
			JOINT RightFoot
			{
				OFFSET 1.745558 -29.803308 -13.615400
				CHANNELS 3 Xrotation Yrotation Zrotation
				JOINT RightToeBase
				{
					OFFSET -1.181900 -18.539904 15.226099
					CHANNELS 3 Xrotation Yrotation Zrotation
					JOINT RightToe_End
					{
						OFFSET 0.863701 1.402801 16.534700
						CHANNELS 3 Xrotation Yrotation Zrotation
						End Site
						{
							OFFSET 0.000000 16.616566 0.000000
						}
					}
				}
			}
		}
	}
}
MOTION
Frames: 4
Frame Time: 0.033333
5.006117 64.228500 5.184052 56.769715 58.078041 -36.295916 16.593593 -5.758636 -5.847121 -4.336135 0.300439 -4.105277 1.640207 -0.487088 -4.263162 -14.397487 -10.111649 1.298477 0.285123 -47.582742 18.617660 -0.000001 -0.000000 -0.000000 8.683394 12.515604 -8.978162 51.284540 -32.639756 -20.450447 0.000019 -39.647995 -0.000022 -25.984551 -35.517199 13.302309 -16.063857 -0.644377 -1.721618 4.401084 20.298393 -9.586104 -17.892498 -22.034638 5.837294 0.000003 0.000002 -0.000001 1.152602 25.023752 -17.568597 2.223996 4.594302 -51.642886 1.265334 3.637894 -38.346912 -0.000001 -0.000003 0.000001 4.540186 16.352489 -18.454862 2.291160 4.646480 -52.476316 1.265514 3.638115 -38.349815 -0.000002 0.000000 0.000003 -0.505253 -0.552167 -9.697513 0.204929 1.537471 -15.183779 0.025207 0.543372 -5.310143 0.000002 -0.000002 0.000004 2.184458 -10.355522 2.710306 0.195060 1.500671 -14.811754 0.025227 0.543678 -5.313050 -0.000001 0.000003 0.000002 3.890947 13.083868 5.312077 -59.420064 -8.909694 25.017629 0.000027 47.130901 -0.000008 34.331256 5.483747 -49.884980 -13.883087 -3.695126 13.911959 7.375324 -23.020772 -2.783698 -3.459259 -24.954467 -18.671232 0.000003 0.000002 -0.000000 0.078017 -1.754115 -6.493641 0.027739 -0.508183 6.250793 0.018228 -0.412074 5.065118 -0.000002 0.000000 -0.000001 0.068864 -2.722103 5.410661 0.028367 -0.513861 6.320909 0.011462 -0.326869 4.015642 -0.000000 -0.000001 -0.000009 3.283483 -10.155139 25.110499 0.330885 -1.725708 21.706266 0.456531 -2.012768 25.557029 -0.000001 -0.000001 -0.000000 10.235422 -21.028423 34.973260 0.938142 -2.805191 36.976677 2.300834 -4.018208 59.577691 0.000000 -0.000000 0.000002 -48.966466 15.524270 1.380459 69.069318 1.209358 -1.651338 -37.484891 25.791426 -9.386035 -2.752148 0.000013 0.000008 -0.000000 0.000001 0.000000 -72.788629 26.036251 -53.016567 30.346298 1.377423 1.778598 48.888896 -21.058718 38.428389 -3.643907 0.000001 -0.000003 -0.000000 0.000000 0.000000 
4.982143 64.196098 5.161190 56.831204 58.063008 -36.351240 16.583155 -5.768829 -5.846326 -4.346803 0.300998 -4.105523 1.629565 -0.486695 -4.263476 -14.395928 -10.118206 1.310474 0.290302 -47.598229 18.644057 -0.000001 0.000000 0.000000 8.678670 12.503147 -8.964803 51.331737 -32.639551 -20.398447 0.000008 -39.661655 -0.000008 -25.982466 -35.508661 13.318853 -16.063860 -0.644378 -1.721615 4.401081 20.298393 -9.586101 -17.892498 -22.034639 5.837297 -0.000001 0.000001 -0.000002 1.152597 25.023752 -17.568599 2.224003 4.594299 -51.642890 1.265328 3.637895 -38.346905 0.000000 0.000001 -0.000004 4.540187 16.352489 -18.454860 2.291157 4.646483 -52.476316 1.265515 3.638119 -38.349815 -0.000000 -0.000000 0.000002 -0.505258 -0.552167 -9.697512 0.204931 1.537469 -15.183785 0.025204 0.543372 -5.310143 0.000003 -0.000001 0.000004 2.184454 -10.355520 2.710309 0.195060 1.500672 -14.811750 0.025228 0.543673 -5.313055 -0.000005 -0.000000 0.000001 3.888351 13.070667 5.355087 -59.399307 -8.897321 25.033227 -0.000017 47.117896 0.000027 34.552083 5.314725 -50.045530 -13.883087 -3.695128 13.911962 7.375325 -23.020774 -2.783698 -3.459260 -24.954460 -18.671231 0.000002 -0.000000 -0.000003 0.078020 -1.754116 -6.493637 0.027743 -0.508192 6.250788 0.018226 -0.412075 5.065112 -0.000001 -0.000003 -0.000001 0.068864 -2.722100 5.410664 0.028368 -0.513859 6.320898 0.011460 -0.326869 4.015639 -0.000001 0.000001 -0.000001 3.283484 -10.155137 25.110496 0.330885 -1.725709 21.706271 0.456528 -2.012766 25.557031 -0.000002 -0.000000 -0.000003 10.235421 -21.028421 34.973260 0.938138 -2.805182 36.976670 2.300838 -4.018208 59.577677 -0.000000 -0.000001 -0.000001 -49.047131 15.547059 1.444863 69.107622 1.153723 -1.669383 -37.460388 25.764715 -9.486188 -2.829930 0.000012 0.000004 -0.000000 -0.000002 -0.000000 -72.845866 26.058362 -53.022475 30.334349 1.382841 1.776260 48.938630 -21.050624 38.443177 -3.644758 -0.000001 -0.000000 -0.000000 -0.000000 -0.000000 
4.960289 64.169121 5.139721 56.902504 58.057209 -36.408077 16.578544 -5.779614 -5.845944 -4.352551 0.300626 -4.110252 1.623780 -0.487899 -4.268218 -14.413518 -10.128665 1.317109 0.320501 -47.636830 18.705813 -0.000001 0.000000 -0.000000 8.676551 12.481867 -8.959528 51.410393 -32.629538 -20.323423 0.000021 -39.672884 0.000013 -25.998067 -35.518695 13.339528 -16.063859 -0.644379 -1.721616 4.401078 20.298395 -9.586105 -17.892500 -22.034641 5.837297 0.000001 0.000001 0.000000 1.152598 25.023757 -17.568607 2.223993 4.594298 -51.642890 1.265327 3.637892 -38.346909 -0.000003 -0.000001 0.000001 4.540187 16.352484 -18.454860 2.291163 4.646480 -52.476313 1.265515 3.638118 -38.349815 -0.000000 0.000003 0.000003 -0.505254 -0.552168 -9.697512 0.204927 1.537469 -15.183782 0.025206 0.543372 -5.310142 -0.000002 -0.000000 0.000002 2.184458 -10.355521 2.710311 0.195066 1.500673 -14.811755 0.025227 0.543675 -5.313055 -0.000005 0.000001 0.000001 3.891940 13.021183 5.386850 -59.386733 -8.898248 25.106975 0.000013 47.086088 0.000010 34.654724 5.245456 -50.098737 -13.883087 -3.695128 13.911961 7.375328 -23.020777 -2.783694 -3.459260 -24.954463 -18.671229 0.000001 -0.000002 0.000004 0.078019 -1.754114 -6.493634 0.027745 -0.508185 6.250790 0.018225 -0.412071 5.065110 -0.000001 -0.000002 0.000005 0.068863 -2.722102 5.410668 0.028371 -0.513862 6.320902 0.011461 -0.326870 4.015636 -0.000003 0.000000 -0.000009 3.283480 -10.155138 25.110499 0.330882 -1.725709 21.706271 0.456530 -2.012767 25.557031 -0.000000 -0.000002 -0.000005 10.235412 -21.028421 34.973260 0.938142 -2.805184 36.976670 2.300838 -4.018211 59.577677 -0.000000 0.000000 0.000004 -49.130066 15.577737 1.497662 69.140625 1.108044 -1.684952 -37.414226 25.726573 -9.569972 -2.908752 0.000005 -0.000002 -0.000000 0.000000 -0.000000 -72.889395 26.083635 -53.045968 30.324479 1.389813 1.778060 48.982907 -21.045049 38.459655 -3.646584 -0.000016 -0.000007 0.000000 0.000001 -0.000000 
4.937996 64.147873 5.120449 56.958645 58.057564 -36.444820 16.583397 -5.789784 -5.847239 -4.348646 0.301479 -4.118638 1.627611 -0.488353 -4.276529 -14.441166 -10.141489 1.320791 0.357888 -47.687759 18.772194 -0.000000 0.000000 -0.000000 8.674989 12.469896 -8.955480 51.490102 -32.612978 -20.246759 0.000017 -39.690154 -0.000004 -26.030710 -35.549434 13.354525 -16.063866 -0.644379 -1.721617 4.401084 20.298393 -9.586104 -17.892500 -22.034638 5.837293 -0.000003 0.000001 0.000000 1.152596 25.023757 -17.568601 2.223996 4.594298 -51.642886 1.265326 3.637895 -38.346909 0.000000 -0.000002 -0.000004 4.540181 16.352489 -18.454862 2.291161 4.646482 -52.476316 1.265518 3.638119 -38.349815 -0.000000 -0.000002 0.000003 -0.505256 -0.552167 -9.697515 0.204931 1.537467 -15.183780 0.025207 0.543371 -5.310146 -0.000001 -0.000002 0.000004 2.184450 -10.355522 2.710304 0.195064 1.500671 -14.811757 0.025231 0.543673 -5.313056 0.000001 -0.000000 -0.000001 3.898602 12.951360 5.416992 -59.371938 -8.891833 25.201757 0.000002 47.034619 0.000005 34.656417 5.256182 -50.091545 -13.883087 -3.695126 13.911960 7.375327 -23.020774 -2.783700 -3.459256 -24.954465 -18.671231 -0.000002 -0.000002 -0.000003 0.078018 -1.754112 -6.493635 0.027740 -0.508183 6.250796 0.018228 -0.412074 5.065115 0.000002 -0.000001 -0.000002 0.068861 -2.722099 5.410665 0.028368 -0.513859 6.320898 0.011461 -0.326870 4.015639 0.000001 0.000002 -0.000008 3.283482 -10.155140 25.110497 0.330884 -1.725707 21.706268 0.456530 -2.012769 25.557026 0.000000 -0.000000 -0.000003 10.235416 -21.028421 34.973260 0.938144 -2.805186 36.976674 2.300839 -4.018209 59.577684 0.000001 0.000000 0.000001 -49.199830 15.617180 1.531983 69.166197 1.074648 -1.695781 -37.371844 25.688372 -9.619219 -2.964475 0.000001 0.000003 0.000000 0.000001 -0.000000 -72.925930 26.110842 -53.072195 30.318397 1.396057 1.781448 49.014824 -21.039315 38.469087 -3.650710 -0.000002 -0.000003 -0.000000 -0.000000 -0.000000 
